<svg width="36" height="36" viewBox="0 0 36 36" fill="none" xmlns="http://www.w3.org/2000/svg">
<g id="instagram" clip-path="url(#clip0_163_916)">
<g id="SVGRepo_iconCarrier">
<g id="Group">
<path id="Vector" d="M26.0649 0H9.93443C4.45659 0 0 4.4568 0 9.93464V26.0651C0 31.5432 4.45659 35.9998 9.93443 35.9998H26.0649C31.5432 35.9998 35.9998 31.543 35.9998 26.0651V9.93464C36 4.4568 31.5432 0 26.0649 0ZM32.8059 26.0651C32.8059 29.782 29.782 32.8057 26.0651 32.8057H9.93443C6.2178 32.8059 3.19408 29.782 3.19408 26.0651V9.93464C3.19408 6.21801 6.2178 3.19408 9.93443 3.19408H26.0649C29.7818 3.19408 32.8057 6.21801 32.8057 9.93464V26.0651H32.8059Z" fill=""/>
<path id="Vector_2" d="M17.9999 8.72412C12.8849 8.72412 8.72363 12.8854 8.72363 18.0004C8.72363 23.1151 12.8849 27.2762 17.9999 27.2762C23.1149 27.2762 27.2761 23.1151 27.2761 18.0004C27.2761 12.8854 23.1149 8.72412 17.9999 8.72412ZM17.9999 24.0819C14.6463 24.0819 11.9177 21.3537 11.9177 18.0001C11.9177 14.6464 14.6461 11.918 17.9999 11.918C21.3536 11.918 24.082 14.6464 24.082 18.0001C24.082 21.3537 21.3534 24.0819 17.9999 24.0819Z" fill=""/>
<path id="Vector_3" d="M27.6651 6.01562C27.0497 6.01562 26.4452 6.26476 26.0105 6.70129C25.5738 7.13568 25.3228 7.74043 25.3228 8.35795C25.3228 8.97355 25.574 9.57808 26.0105 10.0146C26.4449 10.449 27.0497 10.7003 27.6651 10.7003C28.2826 10.7003 28.8852 10.449 29.3217 10.0146C29.7583 9.57808 30.0074 8.97334 30.0074 8.35795C30.0074 7.74043 29.7583 7.13568 29.3217 6.70129C28.8873 6.26476 28.2826 6.01562 27.6651 6.01562Z" fill=""/>
</g>
</g>
</g>
<defs>
<clipPath id="clip0_163_916">
<rect width="36" height="36" fill=""/>
</clipPath>
</defs>
</svg>
