<svg width="36" height="36" viewBox="0 0 36 36" fill="none" xmlns="http://www.w3.org/2000/svg">
<g id="linkedIn" clip-path="url(#clip0_163_928)">
<g id="SVGRepo_iconCarrier">
<g id="Group">
<g id="Group_2">
<path id="Vector" d="M34.6527 0.000488281H1.34689C0.602944 0.000488281 0 0.603432 0 1.34737V34.6531C0 35.3972 0.602944 36 1.34689 36H34.6531C35.3971 36 36 35.3971 36 34.6531V1.34737C35.9996 0.603432 35.3966 0.000488281 34.6527 0.000488281ZM9.56428 29.6235C9.56428 30.1196 9.16242 30.5213 8.66636 30.5213H5.07151C4.57589 30.5213 4.17359 30.1195 4.17359 29.6235V13.9111C4.17359 13.415 4.57589 13.0132 5.07151 13.0132H8.66636C9.16242 13.0132 9.56428 13.415 9.56428 13.9111V29.6235ZM9.56428 9.35232C9.56428 9.84845 9.16242 10.2502 8.66636 10.2502H5.07151C4.57589 10.2502 4.17359 9.84838 4.17359 9.35232V6.16022C4.17359 5.66408 4.57589 5.26229 5.07151 5.26229H8.66636C9.16242 5.26229 9.56428 5.66408 9.56428 6.16022V9.35232ZM31.826 29.6235C31.826 30.1196 31.4238 30.5213 30.9281 30.5213H27.3333C26.8371 30.5213 26.4353 30.1195 26.4353 29.6235V22.9892C26.4353 20.7893 26.3205 19.3664 26.0897 18.7204C25.8593 18.0744 25.4854 17.5724 24.9673 17.2147C24.4492 16.8564 23.8259 16.6777 23.0969 16.6777C22.1631 16.6777 21.3253 16.9335 20.5836 17.4449C19.8419 17.9568 19.3337 18.6342 19.0584 19.4782C18.7837 20.3223 18.6463 21.8829 18.6463 24.1591V29.6235C18.6463 30.1196 18.2441 30.5213 17.7484 30.5213H14.1535C13.6579 30.5213 13.2556 30.1195 13.2556 29.6235V13.9111C13.2556 13.415 13.6578 13.0132 14.1535 13.0132H17.3646C17.8607 13.0132 18.2625 13.415 18.2625 13.9111V15.1081C18.2625 15.6042 18.5054 15.6841 18.8389 15.3173C20.5162 13.4743 22.5622 12.5526 24.9772 12.5526C26.1665 12.5526 27.2534 12.7667 28.2384 13.1951C29.223 13.6233 29.9682 14.1702 30.4734 14.8351C30.9784 15.4999 31.3304 16.2547 31.5284 17.0987C31.7264 17.9428 31.8261 19.1514 31.8261 20.7246V29.6235H31.826Z" fill=""/>
</g>
</g>
</g>
</g>
<defs>
<clipPath id="clip0_163_928">
<rect width="36" height="36" fill=""/>
</clipPath>
</defs>
</svg>
